<svg width="64" height="64" viewBox="0 0 64 64" fill="none" xmlns="http://www.w3.org/2000/svg">
  <rect width="64" height="64" rx="18" fill="#FBBF24"/>
  <path
    d="M14.8964 44.7709C13.6438 46.0236 12.94 47.7225 12.94 49.4936V54.12C12.94 55.2246 13.8354 56.12 14.94 56.12H21.06C22.1645 56.12 23.06 55.2246 23.06 54.12V51.82C23.06 50.7154 23.9554 49.82 25.06 49.82H27.36C28.4645 49.82 29.36 48.9246 29.36 47.82V45.52C29.36 44.4154 30.2554 43.52 31.36 43.52H31.7553C33.5235 43.52 35.2192 42.8176 36.4695 41.5673L38.3415 39.6952C45.5954 32.4414 45.5954 20.6827 38.3415 13.4289C31.0877 6.17505 19.3291 6.17505 12.0752 13.4289C6.33667 19.1674 5.13937 27.8555 8.48332 34.7374"
    stroke="#1C1917"
    stroke-width="4.8"
    stroke-linecap="round"
    stroke-linejoin="round"
  />
  <circle cx="40.7" cy="21.3" r="2.7" fill="#1C1917"/>
</svg>
